<mxfile host="Electron" modified="2023-07-15T15:29:51.147Z" agent="Mozilla/5.0 (Windows NT 10.0; Win64; x64) AppleWebKit/537.36 (KHTML, like Gecko) draw.io/21.6.1 Chrome/112.0.5615.204 Electron/24.6.1 Safari/537.36" etag="j6Eem-1FImHtXGwj14ZC" version="21.6.1" type="device">
  <diagram id="dfTcZu8hBwnrawHtrHI6" name="Page-1">
    <mxGraphModel dx="922" dy="740" grid="1" gridSize="10" guides="1" tooltips="1" connect="1" arrows="1" fold="1" page="1" pageScale="1" pageWidth="850" pageHeight="1100" math="0" shadow="0">
      <root>
        <mxCell id="0" />
        <mxCell id="1" parent="0" />
        <mxCell id="vl6H8IpSv7DQlBcltELX-1" value="&lt;font style=&quot;font-size: 16px;&quot;&gt;Adafruit Metro M4&lt;br&gt;or&lt;br&gt;Sparkfun Micro-Mod&lt;/font&gt;" style="rounded=0;whiteSpace=wrap;html=1;fillColor=#F6FFA6;" parent="1" vertex="1">
          <mxGeometry x="396" y="241" width="160" height="80" as="geometry" />
        </mxCell>
        <mxCell id="vl6H8IpSv7DQlBcltELX-2" value="Telescope Controller 4.0" style="text;html=1;strokeColor=none;fillColor=none;align=center;verticalAlign=middle;whiteSpace=wrap;rounded=0;fontSize=29;" parent="1" vertex="1">
          <mxGeometry x="291" y="31" width="370" height="30" as="geometry" />
        </mxCell>
        <mxCell id="vl6H8IpSv7DQlBcltELX-3" value="&lt;font style=&quot;font-size: 16px;&quot;&gt;IR sensor&lt;/font&gt;" style="whiteSpace=wrap;html=1;aspect=fixed;fontSize=29;fillColor=#f5f5f5;fontColor=#333333;strokeColor=#666666;" parent="1" vertex="1">
          <mxGeometry x="396" y="111" width="80" height="80" as="geometry" />
        </mxCell>
        <mxCell id="vl6H8IpSv7DQlBcltELX-4" value="4X20 LCD" style="rounded=0;whiteSpace=wrap;html=1;fontSize=16;fillColor=#d5e8d4;strokeColor=#82b366;" parent="1" vertex="1">
          <mxGeometry x="141" y="131" width="120" height="60" as="geometry" />
        </mxCell>
        <mxCell id="vl6H8IpSv7DQlBcltELX-5" value="Rocker SCL3300 Inclinometer" style="rounded=0;whiteSpace=wrap;html=1;fontSize=16;fillColor=#ffe6cc;strokeColor=#d79b00;" parent="1" vertex="1">
          <mxGeometry x="141" y="220" width="120" height="60" as="geometry" />
        </mxCell>
        <mxCell id="vl6H8IpSv7DQlBcltELX-6" value="Tube SCL3300 Inclinometer" style="rounded=0;whiteSpace=wrap;html=1;fontSize=16;fillColor=#ffe6cc;strokeColor=#d79b00;" parent="1" vertex="1">
          <mxGeometry x="141" y="309" width="120" height="60" as="geometry" />
        </mxCell>
        <mxCell id="vl6H8IpSv7DQlBcltELX-7" value="Laptop&lt;br&gt;Tera-Term" style="whiteSpace=wrap;html=1;aspect=fixed;fontSize=16;fillColor=#d5e8d4;strokeColor=#82b366;" parent="1" vertex="1">
          <mxGeometry x="661" y="111" width="80" height="80" as="geometry" />
        </mxCell>
        <mxCell id="vl6H8IpSv7DQlBcltELX-8" value="Xbee" style="whiteSpace=wrap;html=1;aspect=fixed;fontSize=16;fillColor=#d5e8d4;strokeColor=#82b366;" parent="1" vertex="1">
          <mxGeometry x="514" y="111" width="80" height="80" as="geometry" />
        </mxCell>
        <mxCell id="vl6H8IpSv7DQlBcltELX-9" value="24512C&lt;br&gt;EEPROM" style="whiteSpace=wrap;html=1;aspect=fixed;fontSize=16;fillColor=#dae8fc;strokeColor=#6c8ebf;" parent="1" vertex="1">
          <mxGeometry x="661" y="261" width="80" height="80" as="geometry" />
        </mxCell>
        <mxCell id="vl6H8IpSv7DQlBcltELX-67" value="" style="edgeStyle=orthogonalEdgeStyle;rounded=0;orthogonalLoop=1;jettySize=auto;html=1;fontSize=14;" parent="1" source="vl6H8IpSv7DQlBcltELX-10" target="vl6H8IpSv7DQlBcltELX-11" edge="1">
          <mxGeometry relative="1" as="geometry" />
        </mxCell>
        <mxCell id="vl6H8IpSv7DQlBcltELX-10" value="BME280 Temp Press Humidity" style="whiteSpace=wrap;html=1;aspect=fixed;fontSize=16;fillColor=#dae8fc;strokeColor=#6c8ebf;" parent="1" vertex="1">
          <mxGeometry x="661" y="407" width="80" height="80" as="geometry" />
        </mxCell>
        <mxCell id="vl6H8IpSv7DQlBcltELX-30" value="" style="edgeStyle=orthogonalEdgeStyle;rounded=0;orthogonalLoop=1;jettySize=auto;html=1;fontSize=16;" parent="1" source="vl6H8IpSv7DQlBcltELX-11" edge="1">
          <mxGeometry relative="1" as="geometry">
            <mxPoint x="701" y="563" as="targetPoint" />
          </mxGeometry>
        </mxCell>
        <mxCell id="vl6H8IpSv7DQlBcltELX-11" value="SAM-M8Q&lt;br&gt;ublox&lt;br&gt;GPS" style="whiteSpace=wrap;html=1;aspect=fixed;fontSize=16;fillColor=#dae8fc;strokeColor=#6c8ebf;" parent="1" vertex="1">
          <mxGeometry x="661" y="549" width="80" height="80" as="geometry" />
        </mxCell>
        <mxCell id="vl6H8IpSv7DQlBcltELX-12" value="Sparkfun&lt;br&gt;QWIIC&lt;br&gt;Motor Driver" style="whiteSpace=wrap;html=1;aspect=fixed;fontSize=16;fillColor=#dae8fc;strokeColor=#6c8ebf;" parent="1" vertex="1">
          <mxGeometry x="381" y="622" width="80" height="80" as="geometry" />
        </mxCell>
        <mxCell id="vl6H8IpSv7DQlBcltELX-13" value="INA219 volt/current meter" style="whiteSpace=wrap;html=1;aspect=fixed;fontSize=16;fillColor=#dae8fc;strokeColor=#6c8ebf;" parent="1" vertex="1">
          <mxGeometry x="131" y="622" width="80" height="80" as="geometry" />
        </mxCell>
        <mxCell id="vl6H8IpSv7DQlBcltELX-14" value="MMC5983MA&lt;br&gt;Magnetic Compass" style="rounded=0;whiteSpace=wrap;html=1;fontSize=16;fillColor=#dae8fc;strokeColor=#6c8ebf;" parent="1" vertex="1">
          <mxGeometry x="520" y="632" width="120" height="60" as="geometry" />
        </mxCell>
        <mxCell id="vl6H8IpSv7DQlBcltELX-15" value="12 volt battery" style="rounded=0;whiteSpace=wrap;html=1;fontSize=16;" parent="1" vertex="1">
          <mxGeometry x="141" y="510" width="120" height="60" as="geometry" />
        </mxCell>
        <mxCell id="vl6H8IpSv7DQlBcltELX-16" value="5 volt regulator" style="whiteSpace=wrap;html=1;aspect=fixed;fontSize=16;" parent="1" vertex="1">
          <mxGeometry x="161" y="732" width="80" height="80" as="geometry" />
        </mxCell>
        <mxCell id="vl6H8IpSv7DQlBcltELX-17" value="3.3 volt regulator" style="whiteSpace=wrap;html=1;aspect=fixed;fontSize=16;" parent="1" vertex="1">
          <mxGeometry x="281" y="732" width="80" height="80" as="geometry" />
        </mxCell>
        <mxCell id="vl6H8IpSv7DQlBcltELX-18" value="11 volt regulator" style="whiteSpace=wrap;html=1;aspect=fixed;fontSize=16;" parent="1" vertex="1">
          <mxGeometry x="250" y="622" width="80" height="80" as="geometry" />
        </mxCell>
        <mxCell id="vl6H8IpSv7DQlBcltELX-19" value="" style="endArrow=classic;html=1;rounded=0;fontSize=16;entryX=1;entryY=0.5;entryDx=0;entryDy=0;exitX=0;exitY=0.25;exitDx=0;exitDy=0;" parent="1" source="vl6H8IpSv7DQlBcltELX-1" target="vl6H8IpSv7DQlBcltELX-4" edge="1">
          <mxGeometry width="50" height="50" relative="1" as="geometry">
            <mxPoint x="391" y="280" as="sourcePoint" />
            <mxPoint x="381" y="220" as="targetPoint" />
          </mxGeometry>
        </mxCell>
        <mxCell id="vl6H8IpSv7DQlBcltELX-53" value="Serial1" style="edgeLabel;html=1;align=center;verticalAlign=middle;resizable=0;points=[];fontSize=16;" parent="vl6H8IpSv7DQlBcltELX-19" vertex="1" connectable="0">
          <mxGeometry x="-0.25" y="1" relative="1" as="geometry">
            <mxPoint as="offset" />
          </mxGeometry>
        </mxCell>
        <mxCell id="vl6H8IpSv7DQlBcltELX-20" value="D11" style="endArrow=classic;html=1;rounded=0;fontSize=16;entryX=0.25;entryY=0;entryDx=0;entryDy=0;exitX=0.5;exitY=1;exitDx=0;exitDy=0;" parent="1" source="vl6H8IpSv7DQlBcltELX-3" target="vl6H8IpSv7DQlBcltELX-1" edge="1">
          <mxGeometry width="50" height="50" relative="1" as="geometry">
            <mxPoint x="201" y="100" as="sourcePoint" />
            <mxPoint x="251" y="50" as="targetPoint" />
          </mxGeometry>
        </mxCell>
        <mxCell id="vl6H8IpSv7DQlBcltELX-21" value="" style="endArrow=classic;startArrow=classic;html=1;rounded=0;fontSize=16;entryX=0;entryY=0.5;entryDx=0;entryDy=0;dashed=1;exitX=1;exitY=0.5;exitDx=0;exitDy=0;" parent="1" source="vl6H8IpSv7DQlBcltELX-8" target="vl6H8IpSv7DQlBcltELX-7" edge="1">
          <mxGeometry width="50" height="50" relative="1" as="geometry">
            <mxPoint x="511" y="240" as="sourcePoint" />
            <mxPoint x="621" y="200" as="targetPoint" />
          </mxGeometry>
        </mxCell>
        <mxCell id="vl6H8IpSv7DQlBcltELX-22" value="" style="endArrow=classic;startArrow=classic;html=1;rounded=0;fontSize=16;entryX=0.5;entryY=1;entryDx=0;entryDy=0;exitX=1;exitY=0.25;exitDx=0;exitDy=0;" parent="1" source="vl6H8IpSv7DQlBcltELX-1" target="vl6H8IpSv7DQlBcltELX-7" edge="1">
          <mxGeometry width="50" height="50" relative="1" as="geometry">
            <mxPoint x="591" y="290" as="sourcePoint" />
            <mxPoint x="641" y="240" as="targetPoint" />
          </mxGeometry>
        </mxCell>
        <mxCell id="vl6H8IpSv7DQlBcltELX-51" value="Serial&lt;br&gt;USB" style="edgeLabel;html=1;align=center;verticalAlign=middle;resizable=0;points=[];fontSize=16;" parent="vl6H8IpSv7DQlBcltELX-22" vertex="1" connectable="0">
          <mxGeometry x="-0.2883" y="-3" relative="1" as="geometry">
            <mxPoint x="27" y="-16" as="offset" />
          </mxGeometry>
        </mxCell>
        <mxCell id="vl6H8IpSv7DQlBcltELX-24" value="" style="endArrow=classic;startArrow=classic;html=1;rounded=0;fontSize=16;exitX=1;exitY=0.75;exitDx=0;exitDy=0;entryX=0;entryY=0.5;entryDx=0;entryDy=0;" parent="1" source="vl6H8IpSv7DQlBcltELX-1" target="vl6H8IpSv7DQlBcltELX-9" edge="1">
          <mxGeometry width="50" height="50" relative="1" as="geometry">
            <mxPoint x="591" y="330" as="sourcePoint" />
            <mxPoint x="641" y="280" as="targetPoint" />
          </mxGeometry>
        </mxCell>
        <mxCell id="vl6H8IpSv7DQlBcltELX-50" value="I2C" style="edgeLabel;html=1;align=center;verticalAlign=middle;resizable=0;points=[];fontSize=16;" parent="vl6H8IpSv7DQlBcltELX-24" vertex="1" connectable="0">
          <mxGeometry x="-0.2919" y="1" relative="1" as="geometry">
            <mxPoint x="18" y="1" as="offset" />
          </mxGeometry>
        </mxCell>
        <mxCell id="vl6H8IpSv7DQlBcltELX-25" value="" style="endArrow=classic;html=1;rounded=0;fontSize=16;entryX=0;entryY=0.5;entryDx=0;entryDy=0;exitX=1;exitY=0.5;exitDx=0;exitDy=0;" parent="1" source="vl6H8IpSv7DQlBcltELX-5" target="vl6H8IpSv7DQlBcltELX-1" edge="1">
          <mxGeometry width="50" height="50" relative="1" as="geometry">
            <mxPoint x="261" y="230" as="sourcePoint" />
            <mxPoint x="341" y="240" as="targetPoint" />
          </mxGeometry>
        </mxCell>
        <mxCell id="vl6H8IpSv7DQlBcltELX-56" value="SPI - D10" style="edgeLabel;html=1;align=center;verticalAlign=middle;resizable=0;points=[];fontSize=16;" parent="vl6H8IpSv7DQlBcltELX-25" vertex="1" connectable="0">
          <mxGeometry x="0.3517" y="-1" relative="1" as="geometry">
            <mxPoint x="-32" y="-11" as="offset" />
          </mxGeometry>
        </mxCell>
        <mxCell id="vl6H8IpSv7DQlBcltELX-26" value="" style="endArrow=classic;html=1;rounded=0;fontSize=16;exitX=1;exitY=0.5;exitDx=0;exitDy=0;entryX=0;entryY=0.75;entryDx=0;entryDy=0;" parent="1" source="vl6H8IpSv7DQlBcltELX-6" target="vl6H8IpSv7DQlBcltELX-1" edge="1">
          <mxGeometry width="50" height="50" relative="1" as="geometry">
            <mxPoint x="321" y="360" as="sourcePoint" />
            <mxPoint x="371" y="310" as="targetPoint" />
          </mxGeometry>
        </mxCell>
        <mxCell id="vl6H8IpSv7DQlBcltELX-57" value="SPI - D9" style="edgeLabel;html=1;align=center;verticalAlign=middle;resizable=0;points=[];fontSize=16;" parent="vl6H8IpSv7DQlBcltELX-26" vertex="1" connectable="0">
          <mxGeometry x="-0.6031" y="-1" relative="1" as="geometry">
            <mxPoint x="22" y="-5" as="offset" />
          </mxGeometry>
        </mxCell>
        <mxCell id="vl6H8IpSv7DQlBcltELX-27" value="I2C" style="endArrow=classic;startArrow=classic;html=1;rounded=0;fontSize=16;entryX=0.5;entryY=1;entryDx=0;entryDy=0;exitX=0.5;exitY=0;exitDx=0;exitDy=0;" parent="1" source="vl6H8IpSv7DQlBcltELX-10" target="vl6H8IpSv7DQlBcltELX-9" edge="1">
          <mxGeometry width="50" height="50" relative="1" as="geometry">
            <mxPoint x="751" y="370" as="sourcePoint" />
            <mxPoint x="861" y="330" as="targetPoint" />
          </mxGeometry>
        </mxCell>
        <mxCell id="vl6H8IpSv7DQlBcltELX-28" value="I2C" style="endArrow=classic;startArrow=classic;html=1;rounded=0;fontSize=16;entryX=0.5;entryY=1;entryDx=0;entryDy=0;exitX=0.5;exitY=0;exitDx=0;exitDy=0;" parent="1" source="vl6H8IpSv7DQlBcltELX-11" target="vl6H8IpSv7DQlBcltELX-10" edge="1">
          <mxGeometry width="50" height="50" relative="1" as="geometry">
            <mxPoint x="701" y="592" as="sourcePoint" />
            <mxPoint x="701" y="514" as="targetPoint" />
          </mxGeometry>
        </mxCell>
        <mxCell id="vl6H8IpSv7DQlBcltELX-29" value="I2C" style="endArrow=classic;startArrow=classic;html=1;rounded=0;fontSize=16;exitX=0.5;exitY=0;exitDx=0;exitDy=0;entryX=0.5;entryY=1;entryDx=0;entryDy=0;" parent="1" source="vl6H8IpSv7DQlBcltELX-74" target="vl6H8IpSv7DQlBcltELX-11" edge="1">
          <mxGeometry width="50" height="50" relative="1" as="geometry">
            <mxPoint x="611" y="781" as="sourcePoint" />
            <mxPoint x="661" y="731" as="targetPoint" />
            <Array as="points">
              <mxPoint x="701" y="662" />
            </Array>
          </mxGeometry>
        </mxCell>
        <mxCell id="vl6H8IpSv7DQlBcltELX-31" value="" style="endArrow=classic;startArrow=classic;html=1;rounded=0;fontSize=16;exitX=1;exitY=0.5;exitDx=0;exitDy=0;entryX=0;entryY=0.5;entryDx=0;entryDy=0;" parent="1" source="vl6H8IpSv7DQlBcltELX-12" target="vl6H8IpSv7DQlBcltELX-14" edge="1">
          <mxGeometry width="50" height="50" relative="1" as="geometry">
            <mxPoint x="491" y="601" as="sourcePoint" />
            <mxPoint x="541" y="551" as="targetPoint" />
          </mxGeometry>
        </mxCell>
        <mxCell id="vl6H8IpSv7DQlBcltELX-62" value="I2C" style="edgeLabel;html=1;align=center;verticalAlign=middle;resizable=0;points=[];fontSize=16;" parent="vl6H8IpSv7DQlBcltELX-31" vertex="1" connectable="0">
          <mxGeometry x="-0.4237" y="-2" relative="1" as="geometry">
            <mxPoint x="11" y="-2" as="offset" />
          </mxGeometry>
        </mxCell>
        <mxCell id="vl6H8IpSv7DQlBcltELX-32" value="Azimuth Encoder" style="ellipse;whiteSpace=wrap;html=1;aspect=fixed;fontSize=16;" parent="1" vertex="1">
          <mxGeometry x="565" y="530" width="80" height="80" as="geometry" />
        </mxCell>
        <mxCell id="vl6H8IpSv7DQlBcltELX-33" value="Altitude Encoder" style="ellipse;whiteSpace=wrap;html=1;aspect=fixed;fontSize=16;" parent="1" vertex="1">
          <mxGeometry x="476" y="530" width="80" height="80" as="geometry" />
        </mxCell>
        <mxCell id="vl6H8IpSv7DQlBcltELX-34" value="Az" style="dashed=0;outlineConnect=0;align=center;html=1;shape=mxgraph.pid.engines.electric_motor_(dc);fontSize=45;" parent="1" vertex="1">
          <mxGeometry x="386" y="498" width="70" height="69" as="geometry" />
        </mxCell>
        <mxCell id="vl6H8IpSv7DQlBcltELX-35" value="Al" style="dashed=0;outlineConnect=0;align=center;html=1;shape=mxgraph.pid.engines.electric_motor_(dc);fontSize=45;" parent="1" vertex="1">
          <mxGeometry x="303" y="498" width="70" height="69" as="geometry" />
        </mxCell>
        <mxCell id="vl6H8IpSv7DQlBcltELX-36" value="" style="endArrow=classic;html=1;rounded=0;fontSize=16;exitX=0.5;exitY=0;exitDx=0;exitDy=0;entryX=0.75;entryY=1;entryDx=0;entryDy=0;" parent="1" source="vl6H8IpSv7DQlBcltELX-32" target="vl6H8IpSv7DQlBcltELX-59" edge="1">
          <mxGeometry width="50" height="50" relative="1" as="geometry">
            <mxPoint x="311" y="510" as="sourcePoint" />
            <mxPoint x="531" y="320" as="targetPoint" />
          </mxGeometry>
        </mxCell>
        <mxCell id="vl6H8IpSv7DQlBcltELX-37" value="" style="endArrow=classic;html=1;rounded=0;fontSize=16;entryX=0.25;entryY=1;entryDx=0;entryDy=0;exitX=0.5;exitY=0;exitDx=0;exitDy=0;" parent="1" source="vl6H8IpSv7DQlBcltELX-33" target="vl6H8IpSv7DQlBcltELX-59" edge="1">
          <mxGeometry width="50" height="50" relative="1" as="geometry">
            <mxPoint x="301" y="500" as="sourcePoint" />
            <mxPoint x="351" y="450" as="targetPoint" />
          </mxGeometry>
        </mxCell>
        <mxCell id="vl6H8IpSv7DQlBcltELX-38" value="" style="endArrow=classic;html=1;rounded=0;fontSize=16;entryX=0.5;entryY=1;entryDx=0;entryDy=0;entryPerimeter=0;exitX=0.5;exitY=0;exitDx=0;exitDy=0;" parent="1" source="vl6H8IpSv7DQlBcltELX-12" target="vl6H8IpSv7DQlBcltELX-34" edge="1">
          <mxGeometry width="50" height="50" relative="1" as="geometry">
            <mxPoint x="421" y="602" as="sourcePoint" />
            <mxPoint x="396" y="546.5" as="targetPoint" />
          </mxGeometry>
        </mxCell>
        <mxCell id="vl6H8IpSv7DQlBcltELX-39" value="" style="endArrow=classic;html=1;rounded=0;fontSize=16;entryX=0.5;entryY=1;entryDx=0;entryDy=0;entryPerimeter=0;exitX=0.172;exitY=-0.002;exitDx=0;exitDy=0;exitPerimeter=0;" parent="1" source="vl6H8IpSv7DQlBcltELX-12" target="vl6H8IpSv7DQlBcltELX-35" edge="1">
          <mxGeometry width="50" height="50" relative="1" as="geometry">
            <mxPoint x="400" y="620" as="sourcePoint" />
            <mxPoint x="311" y="552" as="targetPoint" />
          </mxGeometry>
        </mxCell>
        <mxCell id="vl6H8IpSv7DQlBcltELX-40" value="" style="endArrow=classic;html=1;rounded=0;fontSize=16;exitX=0.25;exitY=1;exitDx=0;exitDy=0;entryX=0.5;entryY=0;entryDx=0;entryDy=0;shadow=0;sketch=1;" parent="1" source="vl6H8IpSv7DQlBcltELX-15" target="vl6H8IpSv7DQlBcltELX-13" edge="1">
          <mxGeometry width="50" height="50" relative="1" as="geometry">
            <mxPoint x="61" y="662" as="sourcePoint" />
            <mxPoint x="111" y="612" as="targetPoint" />
          </mxGeometry>
        </mxCell>
        <mxCell id="vl6H8IpSv7DQlBcltELX-41" value="" style="endArrow=classic;html=1;rounded=0;fontSize=16;exitX=0.25;exitY=1;exitDx=0;exitDy=0;entryX=0.25;entryY=0;entryDx=0;entryDy=0;sketch=1;" parent="1" source="vl6H8IpSv7DQlBcltELX-13" target="vl6H8IpSv7DQlBcltELX-16" edge="1">
          <mxGeometry width="50" height="50" relative="1" as="geometry">
            <mxPoint x="101" y="742" as="sourcePoint" />
            <mxPoint x="161" y="772" as="targetPoint" />
            <Array as="points" />
          </mxGeometry>
        </mxCell>
        <mxCell id="vl6H8IpSv7DQlBcltELX-42" value="" style="endArrow=classic;html=1;rounded=0;fontSize=16;entryX=0.413;entryY=-0.012;entryDx=0;entryDy=0;entryPerimeter=0;exitX=0.5;exitY=1;exitDx=0;exitDy=0;sketch=1;" parent="1" source="vl6H8IpSv7DQlBcltELX-13" target="vl6H8IpSv7DQlBcltELX-17" edge="1">
          <mxGeometry width="50" height="50" relative="1" as="geometry">
            <mxPoint x="251" y="722" as="sourcePoint" />
            <mxPoint x="301" y="672" as="targetPoint" />
          </mxGeometry>
        </mxCell>
        <mxCell id="vl6H8IpSv7DQlBcltELX-43" value="" style="endArrow=classic;html=1;rounded=0;fontSize=16;exitX=1;exitY=0.5;exitDx=0;exitDy=0;entryX=0;entryY=0.5;entryDx=0;entryDy=0;" parent="1" source="vl6H8IpSv7DQlBcltELX-13" target="vl6H8IpSv7DQlBcltELX-18" edge="1">
          <mxGeometry width="50" height="50" relative="1" as="geometry">
            <mxPoint x="271" y="702" as="sourcePoint" />
            <mxPoint x="321" y="652" as="targetPoint" />
          </mxGeometry>
        </mxCell>
        <mxCell id="vl6H8IpSv7DQlBcltELX-44" value="" style="endArrow=classic;html=1;rounded=0;fontSize=16;exitX=1;exitY=0.5;exitDx=0;exitDy=0;" parent="1" source="vl6H8IpSv7DQlBcltELX-18" edge="1">
          <mxGeometry width="50" height="50" relative="1" as="geometry">
            <mxPoint x="521" y="781" as="sourcePoint" />
            <mxPoint x="381" y="662" as="targetPoint" />
          </mxGeometry>
        </mxCell>
        <mxCell id="vl6H8IpSv7DQlBcltELX-45" value="" style="endArrow=classic;html=1;rounded=0;fontSize=16;exitX=1;exitY=0.5;exitDx=0;exitDy=0;entryX=0.5;entryY=1;entryDx=0;entryDy=0;sketch=1;" parent="1" source="vl6H8IpSv7DQlBcltELX-17" target="vl6H8IpSv7DQlBcltELX-12" edge="1">
          <mxGeometry width="50" height="50" relative="1" as="geometry">
            <mxPoint x="401" y="802" as="sourcePoint" />
            <mxPoint x="451" y="752" as="targetPoint" />
            <Array as="points">
              <mxPoint x="421" y="772" />
            </Array>
          </mxGeometry>
        </mxCell>
        <mxCell id="vl6H8IpSv7DQlBcltELX-49" value="I2C&lt;br&gt;Power" style="edgeLabel;html=1;align=center;verticalAlign=middle;resizable=0;points=[];fontSize=16;" parent="vl6H8IpSv7DQlBcltELX-45" vertex="1" connectable="0">
          <mxGeometry x="0.2215" y="1" relative="1" as="geometry">
            <mxPoint as="offset" />
          </mxGeometry>
        </mxCell>
        <mxCell id="vl6H8IpSv7DQlBcltELX-46" value="DC Motors" style="text;html=1;strokeColor=none;fillColor=none;align=center;verticalAlign=middle;whiteSpace=wrap;rounded=0;fontSize=16;" parent="1" vertex="1">
          <mxGeometry x="330" y="468" width="80" height="30" as="geometry" />
        </mxCell>
        <mxCell id="vl6H8IpSv7DQlBcltELX-47" value="IR Remote" style="rounded=1;whiteSpace=wrap;html=1;fontSize=16;" parent="1" vertex="1">
          <mxGeometry x="276" y="92" width="100" height="39" as="geometry" />
        </mxCell>
        <mxCell id="vl6H8IpSv7DQlBcltELX-48" value="" style="endArrow=classic;html=1;rounded=0;fontSize=16;exitX=0.5;exitY=1;exitDx=0;exitDy=0;entryX=0;entryY=0.5;entryDx=0;entryDy=0;dashed=1;" parent="1" source="vl6H8IpSv7DQlBcltELX-47" target="vl6H8IpSv7DQlBcltELX-3" edge="1">
          <mxGeometry width="50" height="50" relative="1" as="geometry">
            <mxPoint x="326" y="200" as="sourcePoint" />
            <mxPoint x="376" y="150" as="targetPoint" />
            <Array as="points">
              <mxPoint x="326" y="151" />
            </Array>
          </mxGeometry>
        </mxCell>
        <mxCell id="vl6H8IpSv7DQlBcltELX-58" value="3.3v - 5v Level Shifter" style="rounded=0;whiteSpace=wrap;html=1;fontSize=16;fillColor=#f5f5f5;fontColor=#333333;strokeColor=#666666;" parent="1" vertex="1">
          <mxGeometry x="383.5" y="406" width="105" height="50" as="geometry" />
        </mxCell>
        <mxCell id="vl6H8IpSv7DQlBcltELX-59" value="Schmitt Trigger CD40106B" style="rounded=0;whiteSpace=wrap;html=1;fontSize=16;fillColor=#f5f5f5;fontColor=#333333;strokeColor=#666666;" parent="1" vertex="1">
          <mxGeometry x="526" y="401" width="105" height="60" as="geometry" />
        </mxCell>
        <mxCell id="vl6H8IpSv7DQlBcltELX-60" value="" style="endArrow=classic;html=1;rounded=0;fontSize=16;exitX=0;exitY=0.5;exitDx=0;exitDy=0;entryX=1;entryY=0.5;entryDx=0;entryDy=0;" parent="1" source="vl6H8IpSv7DQlBcltELX-59" target="vl6H8IpSv7DQlBcltELX-58" edge="1">
          <mxGeometry width="50" height="50" relative="1" as="geometry">
            <mxPoint x="411" y="441" as="sourcePoint" />
            <mxPoint x="461" y="391" as="targetPoint" />
          </mxGeometry>
        </mxCell>
        <mxCell id="vl6H8IpSv7DQlBcltELX-61" value="&lt;font style=&quot;font-size: 14px;&quot;&gt;A1-A4&lt;/font&gt;" style="endArrow=classic;html=1;rounded=0;fontSize=16;entryX=0.25;entryY=1;entryDx=0;entryDy=0;exitX=0.5;exitY=0;exitDx=0;exitDy=0;" parent="1" edge="1">
          <mxGeometry x="-0.1176" width="50" height="50" relative="1" as="geometry">
            <mxPoint x="466.9999999999999" y="406" as="sourcePoint" />
            <mxPoint x="467.0000000000001" y="321" as="targetPoint" />
            <mxPoint as="offset" />
          </mxGeometry>
        </mxCell>
        <mxCell id="vl6H8IpSv7DQlBcltELX-63" value="&lt;font style=&quot;font-size: 14px;&quot;&gt;Hall Effect Azimuth Ref&lt;/font&gt;" style="rounded=0;whiteSpace=wrap;html=1;fontSize=16;fillColor=#f5f5f5;fontColor=#333333;strokeColor=#666666;" parent="1" vertex="1">
          <mxGeometry x="141" y="395" width="110" height="44" as="geometry" />
        </mxCell>
        <mxCell id="vl6H8IpSv7DQlBcltELX-64" value="" style="endArrow=classic;html=1;rounded=0;fontSize=14;exitX=1;exitY=0.5;exitDx=0;exitDy=0;entryX=0.144;entryY=1.013;entryDx=0;entryDy=0;entryPerimeter=0;" parent="1" source="vl6H8IpSv7DQlBcltELX-63" target="vl6H8IpSv7DQlBcltELX-1" edge="1">
          <mxGeometry width="50" height="50" relative="1" as="geometry">
            <mxPoint x="301" y="390" as="sourcePoint" />
            <mxPoint x="351" y="340" as="targetPoint" />
          </mxGeometry>
        </mxCell>
        <mxCell id="vl6H8IpSv7DQlBcltELX-66" value="D8" style="edgeLabel;html=1;align=center;verticalAlign=middle;resizable=0;points=[];fontSize=16;" parent="vl6H8IpSv7DQlBcltELX-64" vertex="1" connectable="0">
          <mxGeometry x="-0.1806" y="2" relative="1" as="geometry">
            <mxPoint as="offset" />
          </mxGeometry>
        </mxCell>
        <mxCell id="vl6H8IpSv7DQlBcltELX-65" value="" style="endArrow=classic;html=1;rounded=0;fontSize=14;exitX=0;exitY=0.5;exitDx=0;exitDy=0;entryX=0;entryY=0.5;entryDx=0;entryDy=0;sketch=1;" parent="1" source="vl6H8IpSv7DQlBcltELX-16" target="vl6H8IpSv7DQlBcltELX-58" edge="1">
          <mxGeometry width="50" height="50" relative="1" as="geometry">
            <mxPoint x="101" y="480" as="sourcePoint" />
            <mxPoint x="381" y="380" as="targetPoint" />
            <Array as="points">
              <mxPoint x="111" y="772" />
              <mxPoint x="111" y="480" />
              <mxPoint x="300" y="480" />
              <mxPoint x="300" y="431" />
            </Array>
          </mxGeometry>
        </mxCell>
        <mxCell id="vl6H8IpSv7DQlBcltELX-68" value="" style="shape=mxgraph.electrical.electro-mechanical.pushbutton;aspect=fixed;elSwitchState=off;fontSize=14;" parent="1" vertex="1">
          <mxGeometry x="531" y="350" width="75" height="20" as="geometry" />
        </mxCell>
        <mxCell id="vl6H8IpSv7DQlBcltELX-69" value="" style="pointerEvents=1;verticalLabelPosition=bottom;shadow=0;dashed=0;align=center;html=1;verticalAlign=top;shape=mxgraph.electrical.signal_sources.signal_ground;fontSize=14;" parent="1" vertex="1">
          <mxGeometry x="596" y="370" width="20" height="19" as="geometry" />
        </mxCell>
        <mxCell id="vl6H8IpSv7DQlBcltELX-71" value="" style="endArrow=none;html=1;rounded=0;fontSize=14;exitX=1;exitY=0.8;exitDx=0;exitDy=0;entryX=0.5;entryY=0;entryDx=0;entryDy=0;entryPerimeter=0;" parent="1" source="vl6H8IpSv7DQlBcltELX-68" edge="1">
          <mxGeometry width="50" height="50" relative="1" as="geometry">
            <mxPoint x="621" y="390" as="sourcePoint" />
            <mxPoint x="606" y="370" as="targetPoint" />
          </mxGeometry>
        </mxCell>
        <mxCell id="vl6H8IpSv7DQlBcltELX-72" value="A5" style="endArrow=classic;html=1;rounded=0;fontSize=14;entryX=0.5;entryY=1;entryDx=0;entryDy=0;exitX=0;exitY=0.8;exitDx=0;exitDy=0;" parent="1" source="vl6H8IpSv7DQlBcltELX-68" edge="1">
          <mxGeometry width="50" height="50" relative="1" as="geometry">
            <mxPoint x="501" y="380" as="sourcePoint" />
            <mxPoint x="517" y="321" as="targetPoint" />
            <Array as="points">
              <mxPoint x="518" y="366" />
            </Array>
          </mxGeometry>
        </mxCell>
        <mxCell id="vl6H8IpSv7DQlBcltELX-73" value="Re-Init" style="text;html=1;strokeColor=none;fillColor=none;align=center;verticalAlign=middle;whiteSpace=wrap;rounded=0;fontSize=14;" parent="1" vertex="1">
          <mxGeometry x="541" y="329" width="52" height="19" as="geometry" />
        </mxCell>
        <mxCell id="vl6H8IpSv7DQlBcltELX-74" value="QWIIC&lt;br&gt;Micro&lt;br&gt;OLED (Optional)" style="whiteSpace=wrap;html=1;aspect=fixed;fontSize=14;fillColor=#dae8fc;strokeColor=#6c8ebf;" parent="1" vertex="1">
          <mxGeometry x="661" y="710" width="80" height="80" as="geometry" />
        </mxCell>
        <mxCell id="vl6H8IpSv7DQlBcltELX-75" value="" style="endArrow=classic;startArrow=classic;html=1;rounded=0;fontSize=16;entryX=0.5;entryY=1;entryDx=0;entryDy=0;exitX=-0.003;exitY=0.584;exitDx=0;exitDy=0;exitPerimeter=0;" parent="1" source="vl6H8IpSv7DQlBcltELX-74" target="vl6H8IpSv7DQlBcltELX-14" edge="1">
          <mxGeometry width="50" height="50" relative="1" as="geometry">
            <mxPoint x="570" y="770" as="sourcePoint" />
            <mxPoint x="620" y="720" as="targetPoint" />
            <Array as="points">
              <mxPoint x="580" y="757" />
            </Array>
          </mxGeometry>
        </mxCell>
        <mxCell id="vl6H8IpSv7DQlBcltELX-76" value="&lt;font style=&quot;font-size: 16px;&quot;&gt;I2C&lt;/font&gt;" style="edgeLabel;html=1;align=center;verticalAlign=middle;resizable=0;points=[];fontSize=14;" parent="vl6H8IpSv7DQlBcltELX-75" vertex="1" connectable="0">
          <mxGeometry x="-0.2511" y="1" relative="1" as="geometry">
            <mxPoint as="offset" />
          </mxGeometry>
        </mxCell>
        <mxCell id="vl6H8IpSv7DQlBcltELX-77" value="" style="endArrow=classic;startArrow=classic;html=1;rounded=0;fontSize=16;exitX=0.75;exitY=0;exitDx=0;exitDy=0;" parent="1" source="vl6H8IpSv7DQlBcltELX-13" edge="1">
          <mxGeometry width="50" height="50" relative="1" as="geometry">
            <mxPoint x="270" y="620" as="sourcePoint" />
            <mxPoint x="380" y="642" as="targetPoint" />
            <Array as="points">
              <mxPoint x="190" y="600" />
              <mxPoint x="330" y="600" />
            </Array>
          </mxGeometry>
        </mxCell>
        <mxCell id="vl6H8IpSv7DQlBcltELX-78" value="I2C" style="edgeLabel;html=1;align=center;verticalAlign=middle;resizable=0;points=[];fontSize=16;" parent="vl6H8IpSv7DQlBcltELX-77" vertex="1" connectable="0">
          <mxGeometry x="-0.1348" y="3" relative="1" as="geometry">
            <mxPoint as="offset" />
          </mxGeometry>
        </mxCell>
        <mxCell id="vl6H8IpSv7DQlBcltELX-79" value="" style="endArrow=classic;html=1;rounded=0;fontSize=16;entryX=0.272;entryY=1.002;entryDx=0;entryDy=0;entryPerimeter=0;sketch=1;" parent="1" target="vl6H8IpSv7DQlBcltELX-1" edge="1">
          <mxGeometry width="50" height="50" relative="1" as="geometry">
            <mxPoint x="360" y="430" as="sourcePoint" />
            <mxPoint x="439.20000000000005" y="323.68" as="targetPoint" />
            <Array as="points">
              <mxPoint x="360" y="380" />
              <mxPoint x="440" y="380" />
            </Array>
          </mxGeometry>
        </mxCell>
        <mxCell id="cRPxH1ninOM3Y_5_v1rp-1" value="Serial2" style="endArrow=classic;startArrow=classic;html=1;rounded=0;entryX=0.5;entryY=1;entryDx=0;entryDy=0;fontSize=16;" parent="1" target="vl6H8IpSv7DQlBcltELX-8" edge="1">
          <mxGeometry width="50" height="50" relative="1" as="geometry">
            <mxPoint x="510" y="240" as="sourcePoint" />
            <mxPoint x="570" y="200" as="targetPoint" />
          </mxGeometry>
        </mxCell>
        <mxCell id="jLt3HvA7a4EzWhA-QPJJ-1" value="&lt;font style=&quot;font-size: 16px;&quot;&gt;External 12v/5v Power Supply (Optional)&lt;/font&gt;" style="rounded=0;whiteSpace=wrap;html=1;" vertex="1" parent="1">
          <mxGeometry x="140" y="840" width="141" height="60" as="geometry" />
        </mxCell>
        <mxCell id="jLt3HvA7a4EzWhA-QPJJ-2" value="" style="endArrow=classic;html=1;rounded=0;entryX=1;entryY=0.5;entryDx=0;entryDy=0;" edge="1" parent="1" target="jLt3HvA7a4EzWhA-QPJJ-1">
          <mxGeometry width="50" height="50" relative="1" as="geometry">
            <mxPoint x="360" y="870" as="sourcePoint" />
            <mxPoint x="390" y="850" as="targetPoint" />
          </mxGeometry>
        </mxCell>
        <mxCell id="jLt3HvA7a4EzWhA-QPJJ-3" value="&lt;font style=&quot;font-size: 16px;&quot;&gt;120v External Power cord&lt;/font&gt;" style="text;html=1;align=center;verticalAlign=middle;resizable=0;points=[];autosize=1;strokeColor=none;fillColor=none;" vertex="1" parent="1">
          <mxGeometry x="361" y="855" width="210" height="30" as="geometry" />
        </mxCell>
        <mxCell id="jLt3HvA7a4EzWhA-QPJJ-4" value="" style="endArrow=classic;html=1;rounded=0;entryX=0;entryY=0.5;entryDx=0;entryDy=0;exitX=0;exitY=0.5;exitDx=0;exitDy=0;" edge="1" parent="1" source="jLt3HvA7a4EzWhA-QPJJ-1" target="vl6H8IpSv7DQlBcltELX-13">
          <mxGeometry width="50" height="50" relative="1" as="geometry">
            <mxPoint x="160" y="870" as="sourcePoint" />
            <mxPoint x="80" y="660" as="targetPoint" />
            <Array as="points">
              <mxPoint x="90" y="870" />
              <mxPoint x="90" y="662" />
            </Array>
          </mxGeometry>
        </mxCell>
        <mxCell id="jLt3HvA7a4EzWhA-QPJJ-5" value="12V" style="edgeLabel;html=1;align=center;verticalAlign=middle;resizable=0;points=[];" vertex="1" connectable="0" parent="jLt3HvA7a4EzWhA-QPJJ-4">
          <mxGeometry x="0.0564" y="3" relative="1" as="geometry">
            <mxPoint as="offset" />
          </mxGeometry>
        </mxCell>
        <mxCell id="jLt3HvA7a4EzWhA-QPJJ-9" value="&lt;font style=&quot;font-size: 16px;&quot;&gt;12V&lt;/font&gt;" style="edgeLabel;html=1;align=center;verticalAlign=middle;resizable=0;points=[];" vertex="1" connectable="0" parent="jLt3HvA7a4EzWhA-QPJJ-4">
          <mxGeometry x="0.0408" y="-3" relative="1" as="geometry">
            <mxPoint as="offset" />
          </mxGeometry>
        </mxCell>
        <mxCell id="jLt3HvA7a4EzWhA-QPJJ-6" value="" style="endArrow=classic;html=1;rounded=0;entryX=0.304;entryY=0.996;entryDx=0;entryDy=0;entryPerimeter=0;exitX=0.75;exitY=0;exitDx=0;exitDy=0;" edge="1" parent="1" source="jLt3HvA7a4EzWhA-QPJJ-1" target="vl6H8IpSv7DQlBcltELX-17">
          <mxGeometry width="50" height="50" relative="1" as="geometry">
            <mxPoint x="200" y="840" as="sourcePoint" />
            <mxPoint x="150" y="810" as="targetPoint" />
          </mxGeometry>
        </mxCell>
        <mxCell id="jLt3HvA7a4EzWhA-QPJJ-7" value="&lt;font style=&quot;font-size: 16px;&quot;&gt;5V&lt;/font&gt;" style="edgeLabel;html=1;align=center;verticalAlign=middle;resizable=0;points=[];" vertex="1" connectable="0" parent="jLt3HvA7a4EzWhA-QPJJ-6">
          <mxGeometry x="-0.0726" relative="1" as="geometry">
            <mxPoint as="offset" />
          </mxGeometry>
        </mxCell>
      </root>
    </mxGraphModel>
  </diagram>
</mxfile>
